HIERARCHY
ROOT Hips
{
	OFFSET 0.000000 0.000000 0.000000
	CHANNELS 6 Xposition Yposition Zposition Zrotation Yrotation Xrotation 
	JOINT LHipJoint
	{
		OFFSET 0.000000 0.000000 0.000000
		CHANNELS 3 Zrotation Yrotation Xrotation
		JOINT LeftUpLeg
		{
			OFFSET 1.363060 -1.794630 0.839290
			CHANNELS 3 Zrotation Yrotation Xrotation
			JOINT LeftLeg
			{
				OFFSET 2.448110 -6.726130 0.000000
				CHANNELS 3 Zrotation Yrotation Xrotation
				JOINT LeftFoot
				{
					OFFSET 2.562200 -7.039590 0.000000
					CHANNELS 3 Zrotation Yrotation Xrotation
					JOINT LeftToeBase
					{
						OFFSET 0.157640 -0.433110 2.322550
						CHANNELS 3 Zrotation Yrotation Xrotation
						End Site
						{
							OFFSET 0.000000 0.000000 0.000000
						}
					}
				}
			}
		}
	}
	JOINT RHipJoint
	{
		OFFSET 0.000000 0.000000 0.000000
		CHANNELS 3 Zrotation Yrotation Xrotation
		JOINT RightUpLeg
		{
			OFFSET -1.305520 -1.794630 0.839290
			CHANNELS 3 Zrotation Yrotation Xrotation
			JOINT RightLeg
			{
				OFFSET -2.542530 -6.985550 0.000000
				CHANNELS 3 Zrotation Yrotation Xrotation
				JOINT RightFoot
				{
					OFFSET -2.568260 -7.056230 0.000000
					CHANNELS 3 Zrotation Yrotation Xrotation
					JOINT RightToeBase
					{
						OFFSET -0.164730 -0.452590 2.363150
						CHANNELS 3 Zrotation Yrotation Xrotation
						End Site
						{
							OFFSET 0.000000 0.000000 0.000000
						}
					}
				}
			}
		}
	}
	JOINT LowerBack
	{
		OFFSET 0.000000 0.000000 0.000000
		CHANNELS 3 Zrotation Yrotation Xrotation
		JOINT Spine
		{
			OFFSET 0.028270 2.035590 -0.193380
			CHANNELS 3 Zrotation Yrotation Xrotation
			JOINT Spine1
			{
				OFFSET 0.056720 2.048850 -0.042750
				CHANNELS 3 Zrotation Yrotation Xrotation
				JOINT Neck
				{
					OFFSET 0.000000 0.000000 0.000000
					CHANNELS 3 Zrotation Yrotation Xrotation
					JOINT Neck1
					{
						OFFSET -0.054170 1.746240 0.172020
						CHANNELS 3 Zrotation Yrotation Xrotation
						JOINT Head
						{
							OFFSET 0.104070 1.761360 -0.123970
							CHANNELS 3 Zrotation Yrotation Xrotation
							End Site
							{
								OFFSET 0.000000 0.000000 0.000000
							}
						}
					}
				}
				JOINT LeftShoulder
				{
					OFFSET 0.000000 0.000000 0.000000
					CHANNELS 3 Zrotation Yrotation Xrotation
					JOINT LeftArm
					{
						OFFSET 3.362410 1.200890 -0.311210
						CHANNELS 3 Zrotation Yrotation Xrotation
						JOINT LeftForeArm
						{
							OFFSET 4.983000 -0.000000 -0.000000
							CHANNELS 3 Zrotation Yrotation Xrotation
							JOINT LeftHand
							{
								OFFSET 3.483560 -0.000000 -0.000000
								CHANNELS 3 Zrotation Yrotation Xrotation
								JOINT LeftFingerBase
								{
									OFFSET 0.000000 0.000000 0.000000
									CHANNELS 3 Zrotation Yrotation Xrotation
									JOINT LeftHandIndex1
									{
										OFFSET 0.715260 -0.000000 -0.000000
										CHANNELS 3 Zrotation Yrotation Xrotation
										End Site
										{
											OFFSET 0.000000 0.000000 0.000000
										}
									}
								}
								JOINT LThumb
								{
									OFFSET 0.000000 0.000000 0.000000
									CHANNELS 3 Zrotation Yrotation Xrotation
									End Site
									{
										OFFSET 0.000000 0.000000 0.000000
									}
								}
							}
						}
					}
				}
				JOINT RightShoulder
				{
					OFFSET 0.000000 0.000000 0.000000
					CHANNELS 3 Zrotation Yrotation Xrotation
					JOINT RightArm
					{
						OFFSET -3.136600 1.374050 -0.404650
						CHANNELS 3 Zrotation Yrotation Xrotation
						JOINT RightForeArm
						{
							OFFSET -5.241900 -0.000000 -0.000000
							CHANNELS 3 Zrotation Yrotation Xrotation
							JOINT RightHand
							{
								OFFSET -3.444170 -0.000000 -0.000000
								CHANNELS 3 Zrotation Yrotation Xrotation
								JOINT RightFingerBase
								{
									OFFSET 0.000000 0.000000 0.000000
									CHANNELS 3 Zrotation Yrotation Xrotation
									JOINT RightHandIndex1
									{
										OFFSET -0.622530 -0.000000 -0.000000
										CHANNELS 3 Zrotation Yrotation Xrotation
										End Site
										{
											OFFSET 0.000000 0.000000 0.000000
										}
									}
								}
								JOINT RThumb
								{
									OFFSET 0.000000 0.000000 0.000000
									CHANNELS 3 Zrotation Yrotation Xrotation
									End Site
									{
										OFFSET 0.000000 0.000000 0.000000
									}
								}
							}
						}
					}
				}
			}
		}
	}
}
MOTION
Frames: 12
Frame Time: 0.016667
0.068557 17.145811 0.068557 0.500294 -7.851453 4.392546 -6.128620 -5.085513 15.909894 12.379668 -28.775024 -12.314028 26.046516 -10.852318 -35.081128 2.294368 -8.789438 46.297168 0.000000 0.000000 0.000000 0.210655 -2.595973 -10.736980 16.794887 -3.418633 3.894920 -1.496123 -9.980172 19.520182 0.344237 0.702801 -14.310912 0.000000 0.000000 0.000000 7.503530 4.920040 0.579743 -9.207491 4.776085 21.480191 -5.348623 3.849481 -22.070115 7.954670 -0.965552 2.692778 -1.119028 -0.177994 1.571046 0.000000 0.000000 0.000000 5.546711 2.593884 14.069715 -68.573845 -2.928185 12.652711 2.673513 -85.139321 -1.083019 13.168250 -22.395767 -0.637091 13.880720 -22.086297 0.000000 0.000000 0.000000 0.000000 0.000000 0.000000 0.000000 -16.367982 -8.540168 -23.594262 80.874998 11.559319 34.481614 157.873487 84.248750 177.929177 40.798586 -78.193159 -7.127547 56.364687 -63.634580 -0.000000 0.000000 0.000000 0.000000 0.000000 0.000000 0.000000 
0.002358 17.122087 0.151544 0.361026 -7.121634 3.894543 -6.583682 -6.746073 17.419575 13.193122 -27.381033 -10.897392 34.361908 -16.380996 -34.351568 5.473182 -1.520033 48.801891 0.000000 0.000000 0.000000 1.712186 -1.551176 -9.131152 13.537274 -4.479330 4.237605 1.962493 -10.358383 16.942586 0.229917 1.152458 -16.759628 0.000000 0.000000 0.000000 6.347091 6.429278 -2.099746 -11.413708 6.328267 28.347376 -5.417040 3.910800 -28.372911 14.721389 -2.148627 0.405158 -2.973410 -0.368382 2.227982 0.000000 0.000000 0.000000 9.071661 0.468270 14.621085 -69.749023 -1.207071 19.633137 -9.347940 -82.083054 0.711955 -0.183233 -8.501335 0.356561 -0.210879 -8.512134 0.000000 0.000000 0.000000 0.000000 0.000000 0.000000 0.000000 -25.846840 -4.321825 -31.940314 81.071298 -19.710735 42.544521 174.712783 80.932575 -177.482816 40.466094 -78.120374 -2.094952 50.424487 -67.299786 0.000000 0.000000 0.000000 0.000000 0.000000 0.000000 0.000000 
-0.006676 17.139358 0.288714 0.079637 -8.579087 4.806271 -7.720165 -8.330891 18.363229 15.035396 -26.078370 -10.925506 45.156134 -22.331021 -32.103678 10.036221 8.311668 53.124111 0.000000 0.000000 0.000000 3.557442 -1.406895 -6.970390 10.525943 -3.471651 2.102936 5.214140 -9.942579 15.266589 0.040930 2.018597 -18.308340 0.000000 0.000000 0.000000 5.502227 7.260000 -2.883616 -12.478026 7.509437 36.232199 -1.096801 4.878618 -32.042359 14.681465 -2.315440 -8.081947 -3.974759 -0.420684 1.427930 0.000000 0.000000 0.000000 6.325615 7.868579 10.609629 -70.456860 -2.040601 23.130030 -10.888685 -83.123125 1.054988 -5.270681 0.706183 0.529369 -5.318105 0.692190 0.000000 0.000000 0.000000 0.000000 0.000000 0.000000 0.000000 -18.598888 -8.257317 -17.413020 73.092343 -22.865081 36.425680 124.781578 67.805807 178.388517 35.955813 -73.028514 -3.910968 48.493713 -63.299552 0.000000 0.000000 0.000000 0.000000 0.000000 0.000000 0.000000 
0.000981 17.168356 0.439391 -0.002639 -6.418418 4.517405 -7.896706 -8.281882 17.553380 13.339102 -26.030009 -10.308191 40.945077 -19.876691 -34.077966 7.826293 2.375839 50.444079 0.000000 0.000000 0.000000 3.449945 0.924804 -8.789261 10.113514 -5.871283 5.315668 5.485068 -10.843565 14.294012 0.270252 0.256408 -16.389307 0.000000 0.000000 0.000000 5.574080 5.997519 -0.745622 -11.215349 6.086585 35.576432 -0.405002 4.547718 -31.005020 13.640926 -2.577246 -10.426430 -4.285453 -0.426349 1.015999 0.000000 0.000000 0.000000 5.251143 9.762925 9.342744 -70.083808 -2.289529 23.168381 -10.901672 -83.312557 1.009877 -4.842904 -0.060461 0.506773 -4.889988 -0.074323 0.000000 0.000000 0.000000 0.000000 0.000000 0.000000 0.000000 -16.072369 -8.824871 -12.564807 72.972181 -22.014670 27.436482 116.746275 84.762527 177.322757 34.335253 -73.715190 -5.798776 49.677907 -62.754332 0.000000 0.000000 0.000000 0.000000 0.000000 0.000000 0.000000 
0.010384 17.198382 0.588779 0.126440 -4.410909 4.217673 -8.163076 -8.238971 16.693795 11.635014 -25.994878 -9.727574 36.732893 -17.723157 -35.757367 5.591457 -2.903740 48.274995 0.000000 0.000000 0.000000 3.104063 3.110811 -10.512361 9.664026 -8.093870 8.394876 5.753903 -11.728106 13.408789 0.508704 -1.572875 -14.198434 0.000000 0.000000 0.000000 6.239072 4.730932 1.380963 -9.550543 4.613546 35.238267 0.409156 4.032103 -31.103367 10.807686 -2.970303 -13.072909 -5.061035 -0.484818 1.161430 0.000000 0.000000 0.000000 2.829180 11.902071 8.144590 -68.809075 -2.305873 23.609231 -10.973438 -83.349288 0.981077 -4.444538 -0.892510 0.492366 -4.491879 -0.906359 0.000000 0.000000 0.000000 0.000000 0.000000 0.000000 0.000000 -10.302080 -9.898337 -7.147781 71.857996 -15.323828 8.082041 -59.311592 72.631292 -5.181551 32.063977 -77.193909 -9.150921 52.752562 -63.323871 0.000000 0.000000 0.000000 0.000000 0.000000 0.000000 0.000000 
0.030153 17.234830 0.745395 0.371841 -3.116689 3.938907 -7.777153 -7.854348 15.322737 9.265897 -26.785552 -9.156346 30.289797 -13.120180 -37.356099 2.687184 -9.658291 45.572792 0.000000 0.000000 0.000000 2.395704 5.261454 -12.481856 9.619503 -9.964889 11.348721 5.353342 -12.627140 13.289069 0.784581 -3.498040 -11.341651 0.000000 0.000000 0.000000 6.787841 2.399181 3.741230 -8.241935 2.054936 33.623093 0.900623 2.073458 -29.931101 8.178760 -3.669576 -16.040694 -5.521412 -0.547443 1.631521 0.000000 0.000000 0.000000 1.049014 16.570464 6.516268 -67.094971 -1.734275 23.542049 -10.463683 -83.667099 0.921420 -2.942530 -3.895630 0.462548 -2.991641 -3.909574 0.000000 0.000000 0.000000 0.000000 0.000000 0.000000 0.000000 -6.290704 -14.567528 -0.433242 71.513026 1.840036 -23.329063 -75.156240 74.461132 -2.452655 31.588227 -81.968227 -7.615137 52.105943 -67.762713 0.000000 0.000000 0.000000 0.000000 0.000000 0.000000 0.000000 
0.051697 17.271511 0.900666 0.614096 -2.324785 3.628750 -7.072836 -7.504902 14.025477 6.564522 -27.875415 -8.283205 24.768359 -8.552796 -38.702860 0.360964 -15.275512 43.387687 0.000000 0.000000 0.000000 1.684183 7.422005 -14.353139 9.551556 -11.602566 14.133590 4.981240 -13.459424 13.239523 1.076291 -5.434074 -8.253322 0.000000 0.000000 0.000000 7.031390 -0.470434 5.792963 -7.296630 -1.019005 31.251723 1.018778 -0.823196 -27.514693 6.816401 -4.011289 -18.253958 -5.486348 -0.541766 1.535784 0.000000 0.000000 0.000000 0.027731 22.519580 4.717315 -65.503414 -0.878004 22.672141 -9.804807 -84.105036 0.841248 -1.286887 -6.881917 0.422037 -1.329520 -6.895747 0.000000 0.000000 0.000000 0.000000 0.000000 0.000000 0.000000 -4.962051 -20.540741 6.380583 77.121931 14.518438 -55.880620 -86.845853 82.773410 5.500122 29.924905 -87.045064 -4.377634 47.636819 -73.216535 0.000000 0.000000 0.000000 0.000000 0.000000 0.000000 0.000000 
0.066814 17.302719 1.046987 0.820267 -1.183872 3.074979 -6.265747 -7.795084 13.220727 4.178441 -29.131454 -6.872433 21.636032 -4.976180 -39.438045 -0.907804 -18.390142 42.119799 0.000000 0.000000 0.000000 1.330173 8.231585 -14.956494 9.435347 -12.510834 15.606471 4.651403 -14.124414 13.559255 1.288065 -6.797835 -6.016612 0.000000 0.000000 0.000000 6.760084 -0.572160 6.265943 -6.733505 -0.778617 32.149699 1.429867 -1.182477 -25.620278 6.741219 -4.299149 -20.648099 -5.586668 -0.506287 1.090828 0.000000 0.000000 0.000000 -0.856243 21.783858 3.490311 -65.775887 -2.253871 22.451308 -9.516694 -84.068470 0.792938 -0.252075 -8.681960 0.397303 -0.285602 -8.694742 0.000000 0.000000 0.000000 0.000000 0.000000 0.000000 0.000000 -3.593937 -18.435225 10.782414 76.816864 21.712844 -50.957531 -94.521095 84.277042 12.764664 -145.005784 -89.024557 -177.596032 45.001539 -80.109545 0.000000 0.000000 0.000000 0.000000 0.000000 0.000000 0.000000 
0.082705 17.333352 1.191416 0.758946 0.525617 1.880613 -5.027713 -8.342831 12.634139 1.572981 -30.738856 -4.753557 19.013815 -1.422068 -39.798805 -1.817378 -20.973733 40.738713 0.000000 0.000000 0.000000 1.152257 8.607091 -14.980029 9.410905 -13.491155 17.091617 4.413758 -14.790383 13.766424 1.503618 -8.230331 -3.678049 0.000000 0.000000 0.000000 5.515644 0.899220 5.291947 -6.435357 0.952098 33.090189 1.976662 -0.802802 -21.656794 8.951300 -4.417130 -20.216468 -5.614767 -0.472216 0.911261 0.000000 0.000000 0.000000 -0.147701 16.517573 3.151333 -67.588163 -4.684418 21.868717 -9.179830 -83.554681 0.725327 0.813144 -10.315501 0.362423 0.795625 -10.325450 0.000000 0.000000 0.000000 0.000000 0.000000 0.000000 0.000000 -5.791638 -10.431280 11.229253 79.306336 21.668050 -16.798493 66.730903 77.907090 -158.079497 -137.672961 -87.214415 -168.416471 40.924695 -86.876901 -0.000000 0.000000 0.000000 0.000000 0.000000 0.000000 0.000000 
0.099511 17.363711 1.334825 1.030826 0.886488 1.433642 -4.291429 -8.914074 12.287275 -0.395329 -32.088853 -3.109366 18.265379 1.675708 -39.968651 -1.803364 -21.875231 39.450965 0.000000 0.000000 0.000000 1.188478 8.665389 -14.603885 9.081122 -13.523105 17.396317 4.158280 -15.046335 14.278241 1.606895 -8.860136 -2.273928 0.000000 0.000000 0.000000 4.950172 1.609883 4.619422 -6.415833 1.691579 33.140166 1.998209 -0.563996 -20.776295 9.593907 -4.460339 -18.747155 -5.717037 -0.481350 1.061388 0.000000 0.000000 0.000000 0.478148 14.049157 3.705205 -68.086737 -5.171989 21.593196 -8.991549 -83.319228 0.705239 1.032957 -10.557854 0.352083 1.019783 -10.566916 0.000000 0.000000 0.000000 0.000000 0.000000 0.000000 0.000000 -6.900163 -7.102752 8.796000 80.120317 18.994112 -4.417644 65.813625 69.607717 -156.396972 -136.503495 -87.721466 -166.859629 39.998546 -87.457110 -0.000000 0.000000 0.000000 0.000000 0.000000 0.000000 0.000000 
0.116103 17.393235 1.476226 1.360903 1.193958 0.970759 -3.508496 -9.521390 11.895370 -2.592032 -33.554556 -1.283681 17.681063 4.912803 -39.967139 -1.647542 -22.670095 37.896345 0.000000 0.000000 0.000000 1.192331 8.697981 -14.187204 8.738888 -13.526965 17.690479 3.915351 -15.270775 14.756563 1.709944 -9.474575 -0.874763 0.000000 0.000000 0.000000 4.424626 2.330987 3.910833 -6.337562 2.418252 32.842980 1.850391 -0.349316 -19.954006 10.023484 -4.528515 -16.679029 -5.860250 -0.499275 1.311447 0.000000 0.000000 0.000000 1.268290 11.378469 4.551858 -68.432173 -5.482077 21.240794 -8.796864 -83.051907 0.682348 1.240071 -10.760356 0.340315 1.231562 -10.768433 0.000000 0.000000 0.000000 0.000000 0.000000 0.000000 0.000000 -8.125505 -3.753259 5.240770 80.963175 15.536495 7.296311 67.527863 60.304289 -155.503299 -135.942911 -88.868988 -166.065235 39.356862 -87.106697 -0.000000 0.000000 0.000000 0.000000 0.000000 0.000000 0.000000 
0.132062 17.421504 1.615141 1.684218 0.709070 1.120071 -3.063131 -10.139175 11.629284 -4.014637 -34.725363 -0.061635 18.031913 7.719612 -39.969446 -1.033678 -22.592710 36.446515 0.000000 0.000000 0.000000 1.371010 8.766846 -13.885551 8.339594 -13.102253 17.389267 3.562146 -15.340150 15.481642 1.767864 -9.734737 0.099878 0.000000 0.000000 0.000000 4.133625 2.341955 3.930649 -6.461867 2.422909 32.888696 1.959808 -0.330010 -20.018445 10.000241 -4.511663 -16.999955 -5.831970 -0.494767 1.245672 0.000000 0.000000 0.000000 1.181492 11.795355 4.404850 -68.424867 -5.444347 21.311089 -8.951009 -83.038093 0.686915 1.190867 -10.734528 0.342653 1.181514 -10.742812 0.000000 0.000000 0.000000 0.000000 0.000000 0.000000 0.000000 -7.891564 -4.177796 5.840988 80.946599 16.209129 5.737873 67.011669 61.578853 -155.517570 -136.002592 -88.707983 -166.110019 39.383781 -87.195053 -0.000000 0.000000 0.000000 0.000000 0.000000 0.000000 0.000000 
